<?xml version="1.0" encoding="UTF-8"?>
<svg width="27px" height="32px" viewBox="0 0 27 32" version="1.1" xmlns="http://www.w3.org/2000/svg" xmlns:xlink="http://www.w3.org/1999/xlink">
    <!-- Generator: Sketch 59.1 (86144) - https://sketch.com -->
    <title>Pickup Icon</title>
    <desc>Created with Sketch.</desc>
    <defs>
        <path d="M2.26189777,27.9649887 L10.409924,23.5836728 C11.181879,23.1685624 11.6017899,22.3062144 11.4525143,21.4425316 C9.23778446,8.62848162 7.75229875,1.52478001 6.99605721,0.131426723 C6.36302625,-1.03491459 2.76925512,5.5987906 1.11426915,18.5543696 C0.865167708,20.5043882 1.00348495,23.5158096 1.52922086,27.5886339 C1.56458043,27.8624986 1.81525064,28.0558524 2.08911636,28.0205008 C2.14961424,28.0126915 2.20817245,27.9938776 2.26189777,27.9649887 Z" id="path-1"></path>
    </defs>
    <g id="Rachel---VD" stroke="none" stroke-width="1" fill="none" fill-rule="evenodd">
        <g id="icons/bag/filled" transform="translate(-3.000000, 0.000000)">
            <g id="Group" stroke-width="1" transform="translate(18.375435, 3.396559)">
                <mask id="mask-2" fill="white">
                    <use xlink:href="#path-1"></use>
                </mask>
                <use id="Path-9" fill="#FFFFFF" xlink:href="#path-1"></use>
                <polygon id="Path-2" fill="#ECECEC" mask="url(#mask-2)" points="7.62456458 21.3076923 14.6245646 23.3076923 0.624564581 29.3076923"></polygon>
                <polygon id="Path-10" fill="#DBDBDB" mask="url(#mask-2)" points="7.62456458 21.3076923 5.62456458 0.307692308 1.62456458 28.3076923"></polygon>
            </g>
            <path d="M6.39328964,3.39655905 C3.14138707,18.9812771 2.22678947,27.1346721 3.64949684,27.856744 C5.78355791,28.9398518 20.7219853,33.2722831 20.7219853,31.1060674 C20.7219853,29.6619237 21.7890159,20.6360252 23.9230769,4.02837195 L6.39328964,3.39655905 Z" id="Path-8" fill="#FFFFFF"></path>
            <g id="icons/w" transform="translate(6.000000, 11.000000)" fill="#005F85">
                <path d="M12.0010618,2.89021124 C11.6990586,3.79177889 11.2862769,5.09274407 10.694799,7.3906646 L10.3143277,8.90640597 C10.2675106,9.09779678 10.2200341,9.29226461 10.1718982,9.4941173 C10.0110057,10.1618312 9.71889342,11.197557 9.62394045,11.5741846 C9.4788734,12.16805 9.3107275,12.516369 8.66386035,12.6997595 C8.66386035,12.6997595 8.32690916,12.8068399 7.92072143,12.7502227 C7.0430658,12.6296034 7.00152387,11.9723514 6.85579743,11.4412572 C6.63358108,10.6289233 6.39685804,8.64116661 6.36652584,7.48666771 C6.36322886,7.36851004 6.36059128,7.25096777 6.35795369,7.1328101 C6.35597551,7.09403962 6.35465672,7.05526913 6.35267853,7.01711405 C6.35135974,6.9555736 6.34608457,6.9297266 6.34080941,6.91187987 C6.33091847,6.87618641 6.30652083,6.86387832 6.26431951,6.87372479 C6.22277758,6.88357126 6.19112659,6.92788039 6.12650581,7.09342421 C6.01836492,7.41897321 5.81593045,8.04730124 5.66163187,8.60916558 C5.39127964,9.55319613 5.07542912,10.6406159 4.93629663,11.2547897 C4.77936046,11.8295775 4.6217649,12.4049807 4.46548812,12.9797686 C4.34284053,13.496093 3.78696998,13.8234882 3.41968659,13.9133373 C3.01943342,14.0105712 2.78600735,14.0278025 2.48202595,13.9558002 C2.07320064,13.8591817 1.83647759,13.3767045 1.71646758,12.9428443 C1.64920922,12.7003749 1.52392404,12.2492834 1.47644755,11.6966501 C1.38281337,10.598153 1.34259023,9.82643575 1.37424123,8.71501516 C1.41050799,7.42881968 1.5450247,5.54752802 1.63404312,4.50380193 C1.64986862,4.15732918 1.66569411,3.81147183 1.68086021,3.46499908 C1.682179,3.07975584 1.65778136,2.84036348 1.6070079,2.66805021 C1.56348778,2.52158393 1.50809855,2.43973513 1.40061705,2.29449966 C1.36435029,2.24526729 1.32742413,2.21265085 1.3175332,2.1788036 C1.25489061,1.95418095 1.78438533,1.54493693 2.49257628,1.39477823 C2.9317338,1.30123674 3.31352389,1.2821592 3.62541804,1.53878289 C3.82521493,1.74986664 3.85620653,1.95541176 3.8443374,2.3825025 C3.83972163,2.52650716 3.81993976,2.73820632 3.80081729,2.94067442 C3.74542805,3.61084995 3.56079727,4.78196478 3.50606742,5.45214032 C3.41045505,6.38017036 3.3115457,7.4183578 3.28714806,8.37408105 C3.27527894,8.8430193 3.26934438,9.73227885 3.30758933,9.87136028 C3.3273712,9.94151639 3.36165977,9.98890254 3.42364297,9.97290203 C3.48496676,9.9562861 3.51727715,9.91074617 3.60893315,9.68120028 C3.63464958,9.58765879 3.65970662,9.49350189 3.68542305,9.3999604 C3.71113948,9.30580351 3.73685591,9.21226202 3.76257234,9.11810513 C3.76257234,9.11810513 4.17799161,7.76113813 4.5301089,6.65217916 C4.90596443,5.58260608 5.28445754,4.47980116 5.53370911,3.85885798 C5.90363008,2.94313603 6.09221724,2.27111428 6.73249043,2.11910936 C7.37408242,1.96833525 7.96160396,2.23172839 8.08293277,2.67420425 C8.14491596,2.90313474 8.14689415,3.0471394 8.11985892,3.94070678 C8.07370123,5.50506511 8.18052332,6.74141282 8.22074646,7.9340668 C8.25305685,8.45285283 8.29723636,8.8565582 8.35064741,9.05164144 C8.37504505,9.14025969 8.42647791,9.16672209 8.46801984,9.15810642 C8.5504443,9.1408751 8.57682012,9.07871924 8.62825298,8.86148144 C8.65001304,8.75686267 8.67243249,8.65162849 8.69551134,8.54700972 C8.84585356,7.84914098 8.99685516,7.15065683 9.14785677,6.45278809 C9.49799587,4.92166161 9.74263167,4.01886316 10.173217,2.60097111 C10.6855675,0.917839713 11.0634012,0.153507282 11.706312,0.0205799028 C12.312956,-0.104347218 12.6538635,0.361514015 12.6861739,0.82245201 C12.6987025,0.979995571 12.6215532,1.32092968 12.492971,1.57016852 C12.3294409,2.01018276 12.1652514,2.450197 12.0010618,2.89021124 Z" id="Mask"></path>
            </g>
            <path d="M6.84254027,1.00431163 L22.864032,1.02746045 C24.5136398,1.0298439 25.8504454,2.3662789 25.8532861,4.01588604 C25.8561153,5.65875555 24.5265999,6.99285791 22.8837304,6.99568706 C22.8805902,6.99569247 22.8774499,6.99569291 22.8743097,6.99568837 L6.85281805,6.97253955 C5.20321019,6.9701561 3.86640465,5.6337211 3.86356389,3.98411396 C3.86073474,2.34124445 5.19025013,1.00714209 6.83311964,1.00431294 C6.83625985,1.00430753 6.83940006,1.00430709 6.84254027,1.00431163 Z" id="Rectangle" fill="#FFFFFF" transform="translate(14.858425, 4.000000) rotate(6.000000) translate(-14.858425, -4.000000) "></path>
        </g>
    </g>
</svg>